<!DOCTYPE svg PUBLIC "-//W3C//DTD SVG 1.1//EN" "http://www.w3.org/Graphics/SVG/1.1/DTD/svg11.dtd">

<!-- Uploaded to: SVG Repo, www.svgrepo.com, Transformed by: SVG Repo Mixer Tools -->
<svg fill="#c2bcbc" width="50px" height="50px" viewBox="0 0 24 24" id="menu-alt-3" data-name="Flat Color" xmlns="http://www.w3.org/2000/svg" class="icon flat-color">

<g id="SVGRepo_bgCarrier" stroke-width="0"/>

<g id="SVGRepo_tracerCarrier" stroke-linecap="round" stroke-linejoin="round"/>

<g id="SVGRepo_iconCarrier">

<rect id="primary" x="2" y="2" width="20" height="20" rx="2" style="fill: #FFF;"/>

<path id="secondary" d="M17,17H7a1,1,0,0,1,0-2H17a1,1,0,0,1,0,2Zm0-4H7a1,1,0,0,1,0-2H17a1,1,0,0,1,0,2Zm0-4H7A1,1,0,0,1,7,7H17a1,1,0,0,1,0,2Z" style="fill: #f30000;"/>

</g>

</svg>